<svg version="1.2" baseProfile="tiny-ps" xmlns="http://www.w3.org/2000/svg" viewBox="0 0 166 123" width="166" height="123">
	<title>Layer 2</title>
	<style>
		tspan { white-space:pre }
		.shp0 { fill: #1e8fff } 
		.shp1 { fill: #ffd100 } 
		.shp2 { fill: #f1125b } 
	</style>
	<g id="Layer 2">
		<g id="Folder 1">
			<path id="&lt;Path&gt;" class="shp0" d="M62.42 66.19C80.49 66.19 95.18 51.49 95.18 33.43C95.18 15.36 80.49 0.67 62.42 0.67C44.36 0.67 29.65 15.36 29.65 33.43C29.65 51.49 44.36 66.19 62.42 66.19Z" />
			<path id="&lt;Path&gt;" class="shp1" d="M48.42 122.29C75.12 122.29 96.84 100.57 96.84 73.88C96.84 47.19 75.12 25.47 48.42 25.47C21.73 25.47 0 47.19 0 73.88C0 100.57 21.73 122.29 48.42 122.29Z" />
			<path id="&lt;Path&gt;" class="shp2" d="M149.51 21.65C140.42 21.65 133.02 29.05 133.02 38.14C133.02 47.23 140.42 54.62 149.51 54.62C158.6 54.62 166 47.23 166 38.14C166 29.05 158.6 21.65 149.51 21.65Z" />
		</g>
	</g>
</svg>