<svg version="1.2" baseProfile="tiny-ps" xmlns="http://www.w3.org/2000/svg" viewBox="0 0 2164 2164" width="2164" height="2164">
	<title>Layer 2</title>
	<style>
		tspan { white-space:pre }
		.shp0 { fill: none;stroke: #dcdbdd } 
	</style>
	<g id="Layer 2">
		<g id="Folder 2">
			<path id="&lt;Path&gt;" class="shp0" d="M2016.66 1081.68C2016.66 1597.88 1598.2 2016.34 1082 2016.34C565.8 2016.34 147.34 1597.88 147.34 1081.68C147.34 565.48 565.8 147.02 1082 147.02C1598.2 147.02 2016.66 565.48 2016.66 1081.68Z" />
			<path id="&lt;Path&gt;" class="shp0" d="M2092.16 1078.4C2092.16 1636.29 1639.89 2088.55 1082 2088.55C524.11 2088.55 71.84 1636.29 71.84 1078.4C71.84 520.5 524.11 68.24 1082 68.24C1639.89 68.24 2092.16 520.5 2092.16 1078.4Z" />
			<path id="&lt;Path&gt;" class="shp0" d="M2163 1082.5C2163 1679.52 1679.02 2163.5 1082 2163.5C484.98 2163.5 1 1679.52 1 1082.5C1 485.48 484.98 1.5 1082 1.5C1679.02 1.5 2163 485.48 2163 1082.5Z" />
		</g>
	</g>
</svg>