<svg version="1.2" baseProfile="tiny-ps" xmlns="http://www.w3.org/2000/svg" viewBox="0 0 180 19" width="180" height="19">
	<title>Layer 2</title>
	<style>
		tspan { white-space:pre }
		.shp0 { fill: #1e8fff } 
	</style>
	<g id="Layer 2">
		<g id="Folder 1">
			<path id="&lt;Compound Path&gt;" class="shp0" d="M22.57 0.74C21.67 1.27 20.67 1.65 19.61 1.85C18.76 0.96 17.55 0.4 16.21 0.4C13.63 0.4 11.54 2.46 11.54 4.99C11.54 5.35 11.58 5.7 11.66 6.04C7.79 5.85 4.35 4.02 2.05 1.24C1.65 1.92 1.42 2.71 1.42 3.55C1.42 5.14 2.24 6.55 3.49 7.37C2.73 7.35 2.01 7.14 1.38 6.8C1.38 6.82 1.38 6.83 1.38 6.86C1.38 9.08 2.99 10.94 5.12 11.36C4.73 11.46 4.32 11.52 3.89 11.52C3.59 11.52 3.3 11.49 3.02 11.44C3.61 13.26 5.33 14.59 7.37 14.62C5.77 15.86 3.76 16.59 1.58 16.59C1.2 16.59 0.83 16.57 0.47 16.53C2.53 17.83 4.98 18.59 7.62 18.59C16.2 18.59 20.89 11.59 20.89 5.53C20.89 5.33 20.88 5.13 20.87 4.93C21.78 4.29 22.58 3.48 23.2 2.56C22.36 2.92 21.47 3.17 20.52 3.28C21.48 2.71 22.22 1.81 22.57 0.74Z" />
			<g id="&lt;Group&gt;">
				<g id="&lt;Group&gt;">
					<path id="&lt;Compound Path&gt;" fill-rule="evenodd" class="shp0" d="M132.82 17.75C132.26 17.38 131.87 16.8 131.64 16.01C131.4 15.22 131.29 14.17 131.29 12.86L131.29 11.08C131.29 9.76 131.42 8.7 131.69 7.89C131.95 7.09 132.37 6.51 132.94 6.14C133.51 5.77 134.25 5.59 135.17 5.59C136.08 5.59 136.81 5.78 137.36 6.15C137.9 6.52 138.3 7.11 138.56 7.9C138.81 8.7 138.94 9.76 138.94 11.08L138.94 12.86C138.94 14.17 138.82 15.22 138.57 16.02C138.32 16.81 137.92 17.39 137.37 17.76C136.81 18.13 136.06 18.31 135.11 18.31C134.14 18.31 133.37 18.12 132.82 17.75ZM135.92 15.83C136.08 15.43 136.15 14.77 136.15 13.86L136.15 10.04C136.15 9.16 136.08 8.51 135.92 8.1C135.77 7.7 135.5 7.49 135.11 7.49C134.74 7.49 134.47 7.7 134.32 8.1C134.17 8.51 134.09 9.16 134.09 10.04L134.09 13.86C134.09 14.77 134.16 15.43 134.31 15.83C134.46 16.23 134.72 16.43 135.11 16.43C135.5 16.43 135.77 16.23 135.92 15.83Z" />
					<path id="&lt;Compound Path&gt;" fill-rule="evenodd" class="shp0" d="M175.37 12.89L175.37 13.51C175.37 14.3 175.39 14.89 175.44 15.29C175.49 15.68 175.59 15.97 175.73 16.15C175.88 16.33 176.11 16.42 176.41 16.42C176.83 16.42 177.11 16.26 177.27 15.94C177.42 15.62 177.5 15.08 177.52 14.33L179.9 14.47C179.91 14.58 179.92 14.73 179.92 14.92C179.92 16.05 179.61 16.9 178.99 17.46C178.37 18.02 177.49 18.3 176.35 18.3C174.99 18.3 174.04 17.87 173.49 17.02C172.94 16.16 172.67 14.84 172.67 13.05L172.67 10.91C172.67 9.06 172.95 7.72 173.52 6.87C174.09 6.02 175.06 5.6 176.43 5.6C177.38 5.6 178.11 5.77 178.62 6.12C179.12 6.47 179.48 7.01 179.69 7.74C179.9 8.48 180 9.49 180 10.79L180 12.89L175.37 12.89ZM175.72 7.72C175.58 7.9 175.49 8.18 175.44 8.57C175.39 8.97 175.37 9.57 175.37 10.37L175.37 11.25L177.4 11.25L177.4 10.37C177.4 9.58 177.37 8.98 177.32 8.57C177.26 8.17 177.16 7.88 177.02 7.71C176.88 7.55 176.67 7.46 176.37 7.46C176.08 7.46 175.86 7.55 175.72 7.72Z" />
					<path id="&lt;Compound Path&gt;" class="shp0" d="M126.09 12.66L122.94 1.3L125.68 1.3L126.79 6.45C127.07 7.72 127.27 8.8 127.41 9.7L127.49 9.7C127.58 9.06 127.79 7.98 128.11 6.47L129.25 1.3L132 1.3L128.81 12.66L128.81 18.11L126.09 18.11L126.09 12.66Z" />
					<path id="&lt;Compound Path&gt;" class="shp0" d="M147.87 5.83L147.87 18.11L145.7 18.11L145.46 16.61L145.4 16.61C144.81 17.74 143.93 18.31 142.76 18.31C141.94 18.31 141.34 18.04 140.95 17.51C140.57 16.98 140.37 16.14 140.37 15.01L140.37 5.83L143.14 5.83L143.14 14.85C143.14 15.39 143.2 15.78 143.32 16.02C143.44 16.25 143.64 16.37 143.92 16.37C144.16 16.37 144.39 16.3 144.61 16.15C144.83 16 144.99 15.81 145.1 15.59L145.1 5.83L147.87 5.83Z" />
					<path id="&lt;Compound Path&gt;" class="shp0" d="M162.05 5.83L162.05 18.11L159.88 18.11L159.64 16.61L159.58 16.61C159 17.74 158.11 18.31 156.94 18.31C156.12 18.31 155.52 18.04 155.14 17.51C154.75 16.98 154.55 16.14 154.55 15.01L154.55 5.83L157.32 5.83L157.32 14.85C157.32 15.39 157.38 15.78 157.5 16.02C157.62 16.25 157.82 16.37 158.1 16.37C158.34 16.37 158.57 16.3 158.79 16.15C159.01 16 159.18 15.81 159.28 15.59L159.28 5.83L162.05 5.83Z" />
					<path id="&lt;Compound Path&gt;" class="shp0" d="M155.38 3.53L152.63 3.53L152.63 18.11L149.93 18.11L149.93 3.53L147.18 3.53L147.18 1.3L155.38 1.3L155.38 3.53Z" />
					<path id="&lt;Compound Path&gt;" fill-rule="evenodd" class="shp0" d="M171.45 11.02L171.45 12.96C171.45 14.79 171.23 16.14 170.79 17C170.35 17.86 169.66 18.29 168.72 18.29C168.2 18.29 167.73 18.17 167.3 17.93C166.87 17.69 166.55 17.36 166.34 16.95L166.28 16.95L166 18.11L163.72 18.11L163.72 0.68L166.38 0.68L166.38 7.15L166.4 7.15C166.64 6.69 166.98 6.31 167.42 6.02C167.86 5.73 168.34 5.59 168.84 5.59C169.5 5.59 170.01 5.76 170.39 6.11C170.76 6.46 171.03 7.02 171.2 7.79C171.37 8.57 171.45 9.64 171.45 11.02ZM168.66 11.22C168.66 10.26 168.63 9.52 168.57 9C168.51 8.48 168.41 8.1 168.25 7.88C168.1 7.66 167.88 7.55 167.6 7.55C167.34 7.55 167.09 7.66 166.86 7.87C166.63 8.09 166.47 8.36 166.38 8.7L166.38 15.67C166.5 15.88 166.66 16.04 166.85 16.15C167.04 16.26 167.25 16.31 167.48 16.31C167.78 16.31 168.01 16.2 168.18 15.99C168.36 15.78 168.48 15.41 168.55 14.91C168.63 14.4 168.66 13.7 168.66 12.8L168.66 11.22Z" />
				</g>
			</g>
			<g id="&lt;Group&gt;">
				<g id="&lt;Group&gt;">
					<g id="&lt;Group&gt;">
						<path id="&lt;Path&gt;" class="shp0" d="M36.34 3.04L39.17 3.04L39.17 13.34L44.41 13.34L44.41 15.96L36.34 15.96L36.34 3.04Z" />
						<g id="&lt;Group&gt;">
							<path id="&lt;Compound Path&gt;" class="shp0" d="M45.66 7.2L48.38 7.2L48.38 15.95L45.66 15.95L45.66 7.2ZM47.02 2.84C47.89 2.84 48.6 3.55 48.6 4.42C48.6 5.29 47.89 6 47.02 6C46.15 6 45.45 5.29 45.45 4.42C45.45 3.55 46.15 2.84 47.02 2.84Z" />
						</g>
						<path id="&lt;Path&gt;" class="shp0" d="M59.75 3.04L62.47 3.04L62.47 10.76L65.55 7.19L68.89 7.19L65.32 11.25L68.81 15.96L65.4 15.96L62.51 11.63L62.47 11.63L62.47 15.96L59.75 15.96L59.75 3.04Z" />
						<path id="&lt;Path&gt;" class="shp0" d="M49.89 7.2L52.5 7.2L52.5 8.4L52.54 8.4C52.9 7.71 53.79 6.98 55.11 6.98C57.87 6.98 58.37 8.8 58.37 11.15L58.37 15.95L55.65 15.95L55.65 11.7C55.65 10.68 55.64 9.38 54.24 9.38C52.82 9.38 52.61 10.48 52.61 11.62L52.61 15.95L49.89 15.95L49.89 7.2Z" />
						<path id="&lt;Compound Path&gt;" fill-rule="evenodd" class="shp0" d="M76.92 14.44C76.04 15.54 74.61 16.18 73.2 16.18C70.48 16.18 68.3 14.36 68.3 11.55C68.3 8.74 70.48 6.93 73.2 6.93C75.74 6.93 77.33 8.74 77.33 11.55L77.33 12.41L71.02 12.41C71.24 13.44 72.02 14.11 73.07 14.11C73.96 14.11 74.56 13.66 75.01 13.04L76.92 14.44ZM74.61 10.56C74.63 9.65 73.92 8.89 72.94 8.89C71.75 8.89 71.09 9.7 71.02 10.56L74.61 10.56Z" />
						<path id="&lt;Compound Path&gt;" fill-rule="evenodd" class="shp0" d="M87.68 15.95L85.17 15.95L85.17 14.79L85.14 14.79C84.72 15.43 83.67 16.17 82.44 16.17C79.82 16.17 78.1 14.28 78.1 11.62C78.1 9.17 79.63 6.92 82.13 6.92C83.25 6.92 84.3 7.23 84.92 8.08L84.96 8.08L84.96 3.04L87.68 3.04L87.68 15.95ZM83 9.31C81.64 9.31 80.82 10.22 80.82 11.54C80.82 12.87 81.64 13.78 83 13.78C84.36 13.78 85.17 12.87 85.17 11.54C85.17 10.22 84.36 9.31 83 9.31Z" />
					</g>
					<path id="&lt;Compound Path&gt;" fill-rule="evenodd" class="shp0" d="M108.75 1.65L108.75 17.35C108.75 18.08 108.14 18.67 107.39 18.67L91.75 18.67C91.01 18.67 90.4 18.08 90.4 17.35L90.4 1.65C90.4 0.92 91.01 0.32 91.75 0.32L107.39 0.32C108.14 0.32 108.75 0.92 108.75 1.65ZM95.84 7.2L93.12 7.2L93.12 15.96L95.84 15.96L95.84 7.2ZM96.06 4.43C96.06 3.56 95.35 2.85 94.48 2.85C93.61 2.85 92.9 3.56 92.9 4.43C92.9 5.3 93.61 6 94.48 6C95.35 6 96.06 5.3 96.06 4.43ZM106.03 11.15C106.03 8.8 105.52 6.98 102.77 6.98C101.44 6.98 100.56 7.71 100.19 8.4L100.16 8.4L100.16 7.2L97.55 7.2L97.55 15.96L100.27 15.96L100.27 11.63C100.27 10.48 100.48 9.38 101.9 9.38C103.3 9.38 103.31 10.68 103.31 11.7L103.31 15.96L106.03 15.96L106.03 11.15Z" />
				</g>
			</g>
		</g>
	</g>
</svg>