<svg version="1.2" baseProfile="tiny-ps" xmlns="http://www.w3.org/2000/svg" viewBox="0 0 1600 932" width="1600" height="932">
	<title>Layer 2</title>
	<style>
		tspan { white-space:pre }
		.shp0 { fill: #008eff } 
		.shp1 { fill: none;stroke: #dcdbdd } 
		.shp2 { fill: none;stroke: #dbdadc } 
	</style>
	<g id="Layer 2">
		<g id="Folder 1">
			<g id="&lt;Group&gt;">
				<g id="&lt;Group&gt;">
					<path id="&lt;Path&gt;" class="shp0" d="M1.5 929.55L1.5 815.25L676.92 202.99C861.41 15.5 1154.34 -11.28 1369.77 139.65L1369.77 139.65C1632.12 323.45 1674.66 690.94 1471.14 929.5L30 929.5L1.5 929.55Z" />
				</g>
				<path id="&lt;Path&gt;" class="shp1" d="M0.64 929.76L0.64 359.02L56.55 323.74C197.58 234.74 382.81 264.7 488.59 393.62L488.6 393.63C596.89 525.61 586.88 718.34 465.51 838.4L373.25 930.83L0.64 929.76Z" />
			</g>
			<g id="&lt;Group&gt;">
				<g id="&lt;Group&gt;">
					<path id="&lt;Path&gt;" class="shp2" d="M1020.07 59.83C1020.07 92.45 993.62 118.9 961 118.9C928.38 118.9 901.93 92.45 901.93 59.83C901.93 27.21 928.38 0.76 961 0.76C993.62 0.76 1020.07 27.21 1020.07 59.83Z" />
					<path id="&lt;Path&gt;" class="shp2" d="M1003.74 59.83C1003.74 83.44 984.61 102.57 961 102.57C937.39 102.57 918.26 83.44 918.26 59.83C918.26 36.22 937.39 17.08 961 17.08C984.61 17.08 1003.74 36.22 1003.74 59.83Z" />
				</g>
				<path id="&lt;Path&gt;" class="shp2" d="M986.75 59.83C986.75 74.05 975.22 85.58 961 85.58C946.78 85.58 935.25 74.05 935.25 59.83C935.25 45.61 946.78 34.08 961 34.08C975.22 34.08 986.75 45.61 986.75 59.83Z" />
			</g>
		</g>
	</g>
</svg>