<svg version="1.2" baseProfile="tiny-ps" xmlns="http://www.w3.org/2000/svg" viewBox="0 0 33 43" width="33" height="43">
	<title>Layer 2</title>
	<style>
		tspan { white-space:pre }
		.shp0 { fill: #232020 } 
	</style>
	<g id="Layer 2">
		<g id="&lt;Group&gt;">
			<path id="&lt;Compound Path&gt;" fill-rule="evenodd" class="shp0" d="M13.56 21.11C7.84 21.11 3.19 16.46 3.19 10.75C3.19 5.03 7.84 0.39 13.56 0.39C19.27 0.39 23.92 5.03 23.92 10.75C23.92 16.46 19.27 21.11 13.56 21.11ZM13.56 1.56C8.49 1.56 4.36 5.68 4.36 10.75C4.36 15.82 8.49 19.94 13.56 19.94C18.62 19.94 22.75 15.82 22.75 10.75C22.75 5.68 18.62 1.56 13.56 1.56Z" />
			<path id="&lt;Path&gt;" class="shp0" d="M18.95 42.62L1.09 42.62C0.76 42.62 0.5 42.36 0.5 42.04L0.5 33.25C0.5 25.91 6.47 19.94 13.81 19.94C18.86 19.94 23.42 22.75 25.69 27.26C25.84 27.55 25.72 27.9 25.43 28.05C25.14 28.2 24.79 28.08 24.65 27.79C22.57 23.67 18.42 21.11 13.81 21.11C7.12 21.11 1.67 26.56 1.67 33.25L1.67 41.45L18.95 41.45C19.28 41.45 19.54 41.71 19.54 42.04C19.54 42.36 19.28 42.62 18.95 42.62Z" />
			<g id="&lt;Group&gt;">
				<path id="&lt;Path&gt;" class="shp0" d="M31.69 37.46L21.37 37.46C21.04 37.46 20.78 37.2 20.78 36.87C20.78 36.55 21.04 36.29 21.37 36.29L31.69 36.29C32.01 36.29 32.27 36.55 32.27 36.87C32.27 37.2 32.01 37.46 31.69 37.46Z" />
				<path id="&lt;Path&gt;" class="shp0" d="M26.53 42.62C26.2 42.62 25.94 42.36 25.94 42.04L25.94 31.71C25.94 31.39 26.2 31.13 26.53 31.13C26.85 31.13 27.11 31.39 27.11 31.71L27.11 42.04C27.11 42.36 26.85 42.62 26.53 42.62Z" />
			</g>
		</g>
	</g>
</svg>