<svg version="1.2" baseProfile="tiny-ps" xmlns="http://www.w3.org/2000/svg" viewBox="0 0 29 29" width="29" height="29">
	<title>Layer 2</title>
	<style>
		tspan { white-space:pre }
		.shp0 { fill: #0084e1 } 
	</style>
	<g id="Layer 2">
		<g id="&lt;Group&gt;">
			<path id="&lt;Compound Path&gt;" fill-rule="evenodd" class="shp0" d="M14.58 29.12C6.62 29.12 0.15 22.65 0.15 14.69C0.15 6.74 6.62 0.27 14.58 0.27C22.53 0.27 29 6.74 29 14.69C29 22.65 22.53 29.12 14.58 29.12ZM14.58 1.05C7.05 1.05 0.93 7.17 0.93 14.69C0.93 22.21 7.05 28.33 14.58 28.33C22.1 28.33 28.22 22.21 28.22 14.69C28.22 7.17 22.1 1.05 14.58 1.05Z" />
			<path id="&lt;Path&gt;" class="shp0" d="M10.13 20.95C10.03 20.95 9.93 20.91 9.86 20.84L6.64 17.83C6.48 17.68 6.48 17.43 6.62 17.28C6.77 17.12 7.02 17.11 7.18 17.26L10.12 20.01L21.56 8.64C21.72 8.48 21.97 8.49 22.12 8.64C22.27 8.79 22.27 9.04 22.12 9.19L10.4 20.83C10.33 20.91 10.23 20.95 10.13 20.95Z" />
		</g>
	</g>
</svg>