<svg version="1.2" baseProfile="tiny-ps" xmlns="http://www.w3.org/2000/svg" viewBox="0 0 43 43" width="43" height="43">
	<title>Layer 2</title>
	<style>
		tspan { white-space:pre }
		.shp0 { fill: #ebe9ec } 
	</style>
	<g id="Layer 2">
		<g id="&lt;Group&gt;">
			<path id="&lt;Compound Path&gt;" fill-rule="evenodd" class="shp0" d="M21.42 21.86C21.33 21.86 21.24 21.84 21.16 21.8L0.26 11.29C0.06 11.19 -0.06 10.98 -0.06 10.76C-0.06 10.53 0.07 10.33 0.28 10.23L21.17 0.44C21.33 0.37 21.51 0.37 21.67 0.44L42.57 10.23C42.77 10.33 42.9 10.53 42.9 10.76C42.91 10.98 42.78 11.19 42.58 11.29L21.69 21.8C21.6 21.84 21.51 21.86 21.42 21.86ZM1.86 10.78L21.42 20.62L40.98 10.78L21.42 1.62L1.86 10.78Z" />
			<path id="&lt;Path&gt;" class="shp0" d="M21.42 28.58C21.33 28.58 21.24 28.56 21.16 28.52L0.26 18C0.06 17.9 -0.06 17.7 -0.06 17.47C-0.06 17.25 0.07 17.05 0.28 16.95L4.76 14.85C5.05 14.71 5.4 14.84 5.53 15.13C5.67 15.43 5.55 15.77 5.25 15.91L1.86 17.5L21.42 27.34L40.98 17.5L37.53 15.88C37.23 15.75 37.11 15.4 37.25 15.1C37.38 14.81 37.73 14.69 38.02 14.82L42.57 16.95C42.77 17.05 42.9 17.25 42.9 17.47C42.91 17.7 42.78 17.9 42.58 18L21.69 28.52C21.6 28.56 21.51 28.58 21.42 28.58Z" />
			<path id="&lt;Path&gt;" class="shp0" d="M21.42 35.23C21.33 35.23 21.24 35.21 21.16 35.17L0.26 24.65C0.06 24.55 -0.06 24.35 -0.06 24.12C-0.06 23.9 0.07 23.7 0.28 23.6L4.76 21.5C5.05 21.36 5.4 21.49 5.53 21.78C5.67 22.08 5.55 22.43 5.25 22.56L1.87 24.15L21.42 33.99L40.98 24.15L37.53 22.53C37.23 22.4 37.11 22.05 37.25 21.75C37.38 21.46 37.73 21.33 38.02 21.47L42.57 23.6C42.77 23.7 42.9 23.9 42.9 24.12C42.91 24.35 42.78 24.55 42.58 24.65L21.69 35.17C21.6 35.21 21.51 35.23 21.42 35.23Z" />
			<path id="&lt;Path&gt;" class="shp0" d="M21.42 42.62C21.33 42.62 21.24 42.6 21.16 42.56L0.26 32.04C0.06 31.94 -0.06 31.73 -0.06 31.51C-0.06 31.29 0.07 31.08 0.28 30.99L4.76 28.89C5.05 28.75 5.4 28.88 5.53 29.17C5.67 29.46 5.55 29.81 5.25 29.95L1.86 31.54L21.42 41.38L40.98 31.54L37.53 29.92C37.23 29.78 37.11 29.43 37.25 29.14C37.38 28.85 37.73 28.72 38.02 28.86L42.57 30.99C42.77 31.08 42.9 31.29 42.9 31.51C42.91 31.73 42.78 31.94 42.58 32.04L21.69 42.56C21.6 42.6 21.51 42.62 21.42 42.62Z" />
		</g>
	</g>
</svg>