<svg version="1.2" baseProfile="tiny-ps" xmlns="http://www.w3.org/2000/svg" viewBox="0 0 43 43" width="43" height="43">
	<title>Layer 2</title>
	<style>
		tspan { white-space:pre }
		.shp0 { fill: #000000 } 
	</style>
	<g id="Layer 2">
		<g id="&lt;Group&gt;">
			<path id="&lt;Compound Path&gt;" fill-rule="evenodd" class="shp0" d="M43.03 41.85C43.03 42.19 42.99 42.38 42.89 42.48C42.79 42.57 42.61 42.61 42.26 42.61C42.26 42.61 42.25 42.61 42.25 42.61C38.46 42.6 34.63 42.6 30.85 42.6C29.38 42.6 27.92 42.6 26.47 42.6L19.81 42.6C13.84 42.6 7.87 42.6 1.9 42.6C1.73 42.6 1.56 42.56 1.38 42.53C1.29 42.51 1.2 42.49 1.11 42.48C0.91 42.45 0.82 42.33 0.8 42.06C0.8 41.96 0.8 41.87 0.8 41.77C0.81 41.71 0.81 41.65 0.81 41.59L0.81 38.22C0.81 31.15 0.81 24.08 0.8 17.01C0.8 16.72 0.91 16.52 1.18 16.33C1.77 15.91 2.37 15.48 2.96 15.06C4.06 14.28 5.16 13.5 6.27 12.72C6.53 12.53 6.64 12.33 6.64 12.01C6.63 9.07 6.63 6.13 6.63 3.19L6.63 1.18C6.63 0.52 6.81 0.35 7.48 0.35C17.07 0.34 26.66 0.34 36.25 0.35C36.94 0.35 37.11 0.52 37.11 1.22L37.11 3.18C37.12 6.09 37.12 9.01 37.11 11.93C37.11 12.28 37.22 12.5 37.51 12.7C39.47 14.08 41.19 15.3 42.75 16.44C42.89 16.54 43.02 16.79 43.02 16.95C43.04 25.38 43.04 33.9 43.03 41.85ZM37.13 19.95L41.36 16.94L37.13 13.92L37.13 19.95ZM7.85 20.44C7.85 20.76 8.01 20.92 8.19 21.05C9.15 21.72 10.1 22.41 11.05 23.09C11.63 23.5 12.21 23.91 12.79 24.33C13.18 24.61 13.58 24.88 13.97 25.16L14.63 25.62L14.7 25.52C15.19 24.8 15.19 24.75 14.71 24.08L14.65 24C14.55 23.87 14.45 23.74 14.36 23.61C14.08 23.2 14.1 22.99 14.43 22.64C14.84 22.22 15.26 21.8 15.68 21.38L15.74 21.33C16.1 20.97 16.35 20.95 16.77 21.24C17 21.4 17.23 21.57 17.45 21.73L17.84 22.02L17.91 21.99C18.01 21.94 18.1 21.89 18.19 21.85C18.36 21.76 18.53 21.68 18.7 21.61C18.82 21.56 18.97 21.52 19.11 21.48C19.42 21.4 19.74 21.31 19.92 21.08C20.11 20.84 20.14 20.49 20.17 20.15C20.18 20.01 20.2 19.87 20.22 19.73C20.29 19.34 20.49 19.17 20.89 19.17C21.55 19.16 22.23 19.16 22.9 19.17C23.31 19.17 23.51 19.34 23.59 19.76L23.6 19.82C23.66 20.14 23.72 20.47 23.75 20.8C23.78 21.12 23.98 21.21 24.16 21.28C24.58 21.43 25 21.59 25.44 21.76L26.01 21.99L26.36 21.73C26.6 21.56 26.86 21.37 27.12 21.19C27.43 20.97 27.72 20.99 27.97 21.22C28.5 21.74 28.98 22.22 29.44 22.7C29.7 22.97 29.71 23.22 29.49 23.55L29.43 23.62C29.27 23.86 29.1 24.11 28.91 24.33C28.76 24.52 28.58 24.8 28.86 25.15C28.91 25.21 28.95 25.29 29 25.38C29.02 25.42 29.04 25.47 29.07 25.52L29.14 25.63L29.35 25.49C29.44 25.43 29.52 25.38 29.6 25.32L31.13 24.23C32.59 23.19 34.05 22.15 35.52 21.11C35.79 20.92 35.89 20.71 35.89 20.36C35.89 15.3 35.89 10.24 35.89 5.18L35.89 1.57L7.9 1.57L7.89 1.69C7.88 1.72 7.88 1.76 7.87 1.8C7.86 1.87 7.85 1.95 7.85 2.02L7.85 7.11C7.85 11.55 7.85 16 7.85 20.44ZM27.45 32.32C27.79 31.66 28.09 30.93 28.35 30.17C28.52 29.66 28.61 29.53 29.09 29.46C29.43 29.4 29.77 29.35 30.1 29.3L30.26 29.28L30.26 28.19L29.03 28C28.65 27.94 28.44 27.75 28.38 27.41C28.22 26.58 27.89 25.8 27.41 25.09C27.21 24.78 27.22 24.51 27.46 24.22C27.63 24.01 27.79 23.8 27.95 23.59L28.24 23.21L27.47 22.44L26.39 23.21C26.16 23.38 25.93 23.39 25.6 23.24C24.92 22.93 24.13 22.58 23.34 22.31C22.86 22.15 22.67 21.95 22.63 21.57C22.62 21.43 22.6 21.3 22.58 21.16C22.44 20.34 22.38 20.3 21.53 20.37C21.48 20.38 21.44 20.41 21.39 20.44L21.35 20.47L21.29 20.81C21.25 21.05 21.21 21.29 21.17 21.53C21.1 22.04 21 22.11 20.49 22.3C19.77 22.56 19.02 22.87 18.28 23.23C17.92 23.4 17.67 23.4 17.41 23.21C17.1 22.98 16.78 22.75 16.48 22.53L16.39 22.47L15.61 23.22L15.88 23.61C16.04 23.82 16.19 24.04 16.35 24.24C16.58 24.55 16.59 24.83 16.37 25.15C15.89 25.84 15.57 26.59 15.41 27.39C15.35 27.71 15.18 27.88 14.87 27.94L13.53 28.21L13.53 29.27L13.94 29.33C14.22 29.37 14.49 29.41 14.75 29.45C15.12 29.51 15.31 29.68 15.44 30.07C15.67 30.77 15.98 31.51 16.37 32.34C16.55 32.71 16.54 32.96 16.34 33.23C16.18 33.45 16.03 33.67 15.88 33.89L15.61 34.27L16.35 35.04L16.78 34.75C17.01 34.59 17.24 34.44 17.46 34.29C17.72 34.12 17.97 34.11 18.21 34.28C18.94 34.76 19.73 35.09 20.57 35.26C20.94 35.34 21.12 35.55 21.17 35.94C21.2 36.2 21.25 36.47 21.29 36.72C21.31 36.83 21.33 36.94 21.34 37.05L21.36 37.15L22.4 37.15L22.48 36.71C22.52 36.49 22.56 36.27 22.59 36.05C22.68 35.47 22.76 35.42 23.34 35.22C24.03 34.98 24.74 34.68 25.45 34.33C25.84 34.13 26.1 34.14 26.39 34.34C26.59 34.48 26.8 34.63 27.01 34.77L27.41 35.05L28.18 34.29L28.12 34.2C28.06 34.1 27.99 34.01 27.93 33.92C27.78 33.7 27.64 33.48 27.48 33.28C27.26 32.98 27.25 32.72 27.45 32.32ZM2.43 16.94L6.61 19.91L6.61 13.97L2.43 16.94ZM2.01 40.79L14.63 31.84L14.71 31.78L14.67 31.69C14.64 31.61 14.61 31.54 14.58 31.47C14.52 31.33 14.47 31.2 14.44 31.08C14.35 30.67 14.05 30.59 13.81 30.56C13.47 30.53 13.15 30.48 12.85 30.41C12.43 30.32 12.29 30.15 12.28 29.74C12.27 29.11 12.27 28.44 12.28 27.76C12.29 27.33 12.44 27.15 12.87 27.07C13.09 27.02 13.31 26.99 13.56 26.94L14.22 26.83L2.01 18.13L2.01 40.79ZM40.48 41.36L29.25 33.34L29.43 33.75C29.71 34.4 29.67 34.5 29.27 34.89L29.11 35.05C28.75 35.42 28.38 35.79 28.01 36.15C27.67 36.48 27.41 36.5 27.02 36.22C26.78 36.05 26.54 35.88 26.32 35.71L25.98 35.46L25.92 35.49C25.75 35.56 25.59 35.63 25.43 35.7C25.06 35.86 24.72 36.01 24.36 36.11C23.89 36.24 23.68 36.5 23.68 36.95C23.67 37.13 23.64 37.3 23.6 37.49C23.58 37.56 23.56 37.64 23.55 37.71C23.48 38.12 23.29 38.29 22.9 38.29C22.26 38.3 21.59 38.3 20.85 38.29C20.47 38.29 20.28 38.13 20.21 37.75C20.13 37.39 20.08 37.02 20.03 36.67C20 36.42 19.89 36.28 19.63 36.19C19.22 36.04 18.81 35.88 18.38 35.71C18.2 35.64 18.02 35.57 17.84 35.5L17.78 35.47L17.04 36C16.93 36.08 16.82 36.16 16.71 36.23C16.33 36.5 16.07 36.48 15.74 36.16C15.45 35.87 15.15 35.58 14.86 35.28L14.57 34.99C14.11 34.53 14.09 34.43 14.37 33.78L14.54 33.37L3.32 41.36L40.48 41.36ZM41.78 18.14L29.57 26.83L30.26 26.95C30.5 26.99 30.7 27.02 30.91 27.07C31.34 27.15 31.5 27.34 31.5 27.75C31.51 28.42 31.51 29.08 31.5 29.73C31.5 30.13 31.34 30.31 30.94 30.4C30.76 30.43 30.58 30.46 30.4 30.49C30.2 30.52 30 30.55 29.81 30.59C29.67 30.62 29.5 30.73 29.44 30.87C29.36 31.07 29.3 31.27 29.24 31.47C29.22 31.54 29.2 31.62 29.17 31.7L29.14 31.79L41.78 40.79L41.78 18.14Z" />
			<path id="&lt;Compound Path&gt;" fill-rule="evenodd" class="shp0" d="M25.45 25.1C26.41 26.05 26.95 27.33 26.96 28.71C26.97 31.51 24.72 33.8 21.93 33.83C20.61 33.83 19.35 33.32 18.38 32.36C17.39 31.39 16.84 30.11 16.83 28.76C16.82 25.92 19.03 23.68 21.87 23.66C21.89 23.66 21.9 23.66 21.92 23.66C23.25 23.66 24.5 24.17 25.45 25.1ZM25.75 28.75C25.76 26.61 24.08 24.91 21.93 24.88C20.91 24.85 19.95 25.26 19.21 25.99C18.47 26.72 18.06 27.68 18.07 28.7C18.07 30.85 19.75 32.54 21.9 32.54C21.9 32.54 21.9 32.54 21.91 32.54C24.02 32.54 25.74 30.84 25.75 28.75Z" />
		</g>
	</g>
</svg>