<svg version="1.2" baseProfile="tiny-ps" xmlns="http://www.w3.org/2000/svg" viewBox="0 0 43 43" width="43" height="43">
	<title>Layer 2</title>
	<style>
		tspan { white-space:pre }
		.shp0 { fill: #222020 } 
	</style>
	<g id="Layer 2">
		<g id="Folder 2">
			<g id="&lt;Group&gt;">
				<path id="&lt;Compound Path&gt;" fill-rule="evenodd" class="shp0" d="M21.21 28.18C15.62 28.18 11.07 23.63 11.07 18.04C11.07 12.45 15.62 7.9 21.21 7.9C26.8 7.9 31.35 12.45 31.35 18.04C31.35 23.63 26.8 28.18 21.21 28.18ZM21.21 9.04C16.25 9.04 12.22 13.08 12.22 18.04C12.22 23 16.25 27.03 21.21 27.03C26.17 27.03 30.21 23 30.21 18.04C30.21 13.08 26.17 9.04 21.21 9.04Z" />
				<path id="&lt;Path&gt;" class="shp0" d="M9.66 38.71C10.34 32.79 15.36 28.18 21.46 28.18C27.61 28.18 32.69 32.89 33.27 38.89C33.61 38.63 33.96 38.38 34.32 38.16C33.4 31.88 27.99 27.03 21.46 27.03C14.93 27.03 9.52 31.87 8.59 38.15C8.98 38.28 9.33 38.47 9.66 38.71Z" />
			</g>
			<g id="&lt;Group&gt;">
				<path id="&lt;Compound Path&gt;" fill-rule="evenodd" class="shp0" d="M21.62 43C9.99 43 0.52 33.53 0.52 21.9C0.52 10.26 9.99 0.79 21.62 0.79C33.26 0.79 42.72 10.26 42.72 21.9C42.72 33.53 33.26 43 21.62 43ZM21.62 1.94C10.62 1.94 1.66 10.89 1.66 21.9C1.66 32.9 10.62 41.85 21.62 41.85C32.63 41.85 41.58 32.9 41.58 21.9C41.58 10.89 32.63 1.94 21.62 1.94Z" />
			</g>
		</g>
	</g>
</svg>